<svg xmlns="http://www.w3.org/2000/svg" viewBox="0 0 64 64" role="img" aria-label="SS retro monitor favicon">
  <rect width="64" height="64" rx="14" fill="#d8cfad"/>
  <rect x="10" y="12" width="44" height="34" rx="5" fill="#544d3c"/>
  <rect x="14" y="16" width="36" height="24" rx="3" fill="#07130f"/>
  <path d="M22 27c0-3 2.4-5 6.1-5 2 0 3.9.5 5.5 1.6l-1.8 3.2a7 7 0 0 0-3.8-1.2c-1.2 0-1.9.4-1.9 1.1 0 2.2 8.4.7 8.4 6.4 0 3.1-2.6 5.1-6.5 5.1-2.5 0-4.8-.8-6.5-2.1l1.9-3.2a7.8 7.8 0 0 0 4.7 1.7c1.3 0 2.1-.4 2.1-1.2 0-2.3-8.2-.8-8.2-6.4Z" fill="#9bf4c9"/>
  <path d="M35.5 27c0-3 2.4-5 6.1-5 2 0 3.8.5 5.4 1.5l-1.8 3.1a6.6 6.6 0 0 0-3.6-1.1c-1.1 0-1.8.4-1.8 1.1 0 2.1 8 .7 8 6.2 0 3-2.5 5-6.3 5-2.4 0-4.6-.7-6.2-2l1.8-3.1a7.3 7.3 0 0 0 4.4 1.6c1.3 0 2-.4 2-1.1 0-2.2-8-.8-8-6.2Z" fill="#f6d982"/>
  <path d="M25 46h14l2 5H23l2-5Z" fill="#8e846a"/>
  <rect x="18" y="51" width="28" height="4" rx="2" fill="#8e846a"/>
  <circle cx="49" cy="49" r="2" fill="#73d895"/>
</svg>
